# xmcd CD database file generated by OrangeCD 6.4
#
# Track frame offsets:
#	150
#	11978
#	33661
#	52233
#	69126
#	80704
#	94501
#	114678
#	135616
#	151190
#	168697
#	187160
#	207937
#	213073
#	230556
#	257843
#	273391
#
# Disc length: 3907 seconds
#
# Revision: 0
# Processed by: cddbd v1.5.2PL0 Copyright (c) Steve Scherf et al.
# Submitted via: OrangeCD 6.4
#
DISCID=f90f4111
DTITLE=Various Artist - Blues ... is number one
DYEAR=1900
DGENRE=
TTITLE0=Jacaszek - Walk In Blue
TTITLE1=Andrew Pekler - Blues For Dorothy And Alice
TTITLE2=Laub - Coverin
TTITLE3=Donna Regina - Houston Blue
TTITLE4=Molr Drammaz - Molr Bagno Blues
TTITLE5=Tarwater - Subfusc
TTITLE6=Paul Wirkus and Mapstation - Spur Of The Moment
TTITLE7=Matt Elliott - Some Small Consolation
TTITLE8=Barbara Morgenstern - Basia Has Got The Blues!
TTITLE9=Pathman - Pathman Blues (Probably Green Onions)
TTITLE10=Manyfingers - Easy Target
TTITLE11=N-Noiz - Ain't Nothin' But Deformation
TTITLE12=Kammerflimmer Kollektief - Absence
TTITLE13=2nd Hand Beatnix: Lalix and magura - Thank You America (A Portable Thank
TTITLE13=sgiving Blues)
TTITLE14=Starzy Singers - Blues.wav Shoes
TTITLE15=Rozkrock - O jeden kielonek za malo
TTITLE16=Jacaszek - Close Miked Winter
EXTD=
EXTT0=
EXTT1=
EXTT2=
EXTT3=
EXTT4=
EXTT5=
EXTT6=
EXTT7=
EXTT8=
EXTT9=
EXTT10=
EXTT11=
EXTT12=
EXTT13=
EXTT14=
EXTT15=
EXTT16=
PLAYORDER=
